<?xml version="1.0" standalone="no"?>
<!DOCTYPE svg PUBLIC "-//W3C//DTD SVG 20010904//EN"
 "http://www.w3.org/TR/2001/REC-SVG-20010904/DTD/svg10.dtd">
<svg version="1.0" xmlns="http://www.w3.org/2000/svg"
 width="500.000000pt" height="500.000000pt" viewBox="0 0 500.000000 500.000000"
 preserveAspectRatio="xMidYMid meet">
<metadata>
Created by potrace 1.14, written by Peter Selinger 2001-2017
</metadata>
<g transform="translate(0.000000,500.000000) scale(0.100000,-0.100000)"
fill="#000000" stroke="none">
<path d="M660 3627 c-13 -12 -18 -14 -11 -4 9 11 10 17 2 17 -6 0 -12 -4 -12
-10 -1 -5 -2 -16 -3 -22 -1 -7 3 -16 9 -20 6 -5 4 -8 -5 -8 -13 0 -13 -1 0
-10 12 -8 12 -10 1 -10 -11 0 -11 -3 0 -17 8 -9 9 -14 3 -10 -6 3 -11 0 -11
-8 0 -8 5 -11 10 -8 5 3 7 0 5 -8 -3 -8 2 -22 10 -32 15 -16 14 -17 -4 -11
-17 7 -17 6 -6 -9 8 -9 10 -22 6 -28 -4 -8 -3 -9 4 -5 8 5 12 -1 12 -18 0 -13
5 -26 10 -28 6 -2 13 -17 16 -33 3 -17 13 -41 22 -55 9 -14 17 -28 17 -32 0
-3 4 -10 9 -15 6 -5 6 -2 1 7 -7 13 -6 13 7 2 9 -7 19 -24 22 -37 4 -14 12
-25 19 -25 7 0 19 -9 27 -20 8 -11 20 -20 26 -20 6 0 18 -8 25 -17 12 -14 12
-16 -1 -9 -8 4 -4 -1 10 -12 13 -11 28 -18 33 -15 5 3 15 -3 23 -13 9 -11 13
-13 9 -4 -4 8 2 5 13 -7 24 -27 34 -29 25 -5 -5 16 -5 16 8 -1 8 -10 24 -19
37 -20 12 0 22 -6 22 -12 0 -5 5 -3 10 5 7 11 10 11 10 2 0 -7 5 -10 10 -7 6
4 22 0 35 -9 23 -15 24 -15 18 1 -6 15 -4 16 8 6 8 -7 28 -11 44 -9 17 1 36
-2 44 -8 11 -8 13 -8 7 2 -4 7 -1 12 9 12 9 0 14 -3 12 -7 -3 -5 5 -8 18 -8
13 0 21 3 19 6 -2 3 10 6 26 5 17 -1 30 -5 30 -10 0 -5 7 -2 17 5 13 11 17 11
20 2 3 -7 9 -13 14 -13 6 0 8 3 6 8 -3 4 19 7 49 7 30 0 54 -3 54 -7 0 -4 11
-3 25 2 18 7 25 6 25 -2 0 -9 3 -9 12 0 7 7 17 8 29 2 11 -7 20 -7 24 0 4 6
13 7 23 1 9 -4 25 -7 35 -6 10 2 17 -3 17 -13 0 -15 2 -15 10 -2 6 10 10 11
10 3 0 -7 7 -13 16 -13 8 0 12 -4 9 -10 -3 -5 0 -10 8 -10 8 0 21 -8 28 -17
13 -17 13 -17 -5 -3 -18 14 -19 14 -8 -6 6 -12 8 -24 5 -28 -3 -3 -2 -6 4 -6
6 0 13 -9 16 -21 4 -16 3 -18 -8 -9 -15 13 -16 -5 -1 -29 6 -10 5 -12 -2 -7
-8 4 -12 0 -12 -11 0 -21 -34 -55 -46 -45 -5 4 -2 -2 6 -13 8 -11 10 -17 6
-13 -5 4 -15 3 -23 -3 -10 -9 -13 -8 -13 0 0 7 -5 9 -10 6 -6 -4 -8 -10 -6
-14 3 -4 -8 -8 -24 -8 -18 0 -27 4 -23 11 3 6 0 5 -8 -1 -7 -7 -17 -13 -22
-13 -4 0 -5 6 -1 13 5 9 4 9 -6 0 -11 -10 -17 -10 -29 0 -8 6 -12 7 -8 1 4 -7
-5 -11 -22 -11 -16 0 -28 5 -27 11 2 6 1 8 -2 3 -2 -4 -13 -12 -25 -19 -20
-10 -21 -10 -8 6 12 14 12 16 -1 11 -26 -10 -139 -11 -145 -1 -4 5 0 6 7 1 9
-5 11 -4 6 4 -4 6 -12 9 -17 5 -5 -3 -7 -8 -5 -12 2 -4 -57 -6 -132 -4 -164 3
-162 3 -162 14 0 5 -5 6 -10 3 -6 -4 -8 -10 -5 -15 3 -4 -3 -7 -12 -5 -10 2
-31 4 -46 4 -20 1 -26 5 -21 14 6 9 4 9 -7 1 -8 -6 -23 -14 -33 -18 -16 -5
-17 -4 -6 9 11 13 10 14 -4 9 -9 -3 -16 -10 -16 -15 0 -4 -7 -6 -15 -3 -8 4
-12 11 -9 18 3 6 -1 3 -9 -7 -11 -14 -16 -15 -20 -5 -4 10 -6 10 -6 0 -1 -10
-6 -10 -21 -2 -15 8 -20 8 -20 -2 0 -9 -3 -9 -10 2 -5 8 -10 10 -10 4 0 -6
-10 -10 -22 -8 -13 1 -27 3 -31 3 -5 1 -5 7 -1 14 5 8 2 8 -9 -2 -14 -11 -20
-11 -34 0 -14 12 -15 12 -9 0 5 -8 3 -17 -5 -23 -10 -7 -9 -8 6 -4 20 6 20 6
1 -9 -14 -11 -16 -15 -5 -15 8 0 10 -3 4 -8 -15 -11 -17 -32 -2 -32 9 0 9 -2
-1 -9 -17 -11 -17 -21 0 -32 10 -7 10 -9 1 -9 -17 0 -17 -27 0 -33 9 -4 8 -6
-2 -6 -11 -1 -11 -4 0 -18 10 -11 10 -14 2 -9 -8 4 -13 2 -13 -8 0 -8 4 -18
10 -21 6 -4 5 -13 -3 -26 -10 -16 -9 -21 3 -29 8 -5 10 -10 5 -10 -6 0 -11 -9
-12 -20 -1 -13 2 -18 10 -14 8 5 8 3 0 -7 -17 -17 -17 -32 0 -23 9 6 9 4 1 -7
-14 -18 -14 -52 0 -61 8 -6 8 -8 0 -8 -6 0 -11 -11 -11 -25 0 -16 4 -22 11
-18 8 5 8 3 0 -8 -15 -20 -15 -59 -1 -59 8 0 8 -3 -1 -9 -14 -9 -13 -32 3 -43
6 -5 5 -8 -4 -8 -10 0 -11 -3 -2 -14 8 -10 9 -16 1 -21 -5 -3 -10 -11 -10 -16
0 -6 6 -7 13 -3 9 6 9 4 1 -7 -15 -20 -16 -61 -1 -52 9 5 9 3 1 -8 -14 -18
-14 -52 0 -61 8 -6 8 -8 0 -8 -6 0 -11 -11 -11 -25 0 -14 5 -25 11 -25 7 0 6
-3 -2 -9 -14 -9 -13 -32 3 -43 6 -5 5 -8 -2 -8 -7 0 -13 -5 -13 -11 0 -5 4 -8
8 -5 4 2 8 -4 8 -14 0 -10 -3 -17 -6 -15 -3 2 -5 -10 -5 -25 -1 -16 3 -26 7
-24 4 3 8 0 8 -5 0 -6 -5 -11 -11 -11 -6 0 -4 -7 5 -15 8 -9 13 -21 10 -29 -3
-7 1 -18 9 -24 7 -6 12 -25 11 -42 -1 -16 2 -30 7 -30 5 0 9 -7 9 -15 0 -8 5
-15 10 -15 6 0 10 -5 10 -11 0 -5 -5 -7 -11 -3 -6 3 -3 -5 6 -20 10 -14 22
-26 27 -26 6 0 7 -7 4 -16 -4 -11 -2 -15 8 -11 11 4 13 1 9 -11 -3 -9 -3 -14
2 -10 7 7 35 -14 35 -26 0 -10 39 -46 50 -46 6 0 10 -5 10 -11 0 -5 5 -7 12
-3 8 5 9 2 5 -10 -4 -9 -3 -14 2 -11 5 3 12 1 16 -5 4 -6 11 -8 16 -5 5 4 9
-1 9 -9 0 -9 6 -13 14 -10 8 3 17 0 22 -7 5 -8 3 -10 -6 -4 -8 5 -11 4 -7 -3
4 -5 16 -8 26 -5 10 3 22 -1 26 -8 6 -8 4 -10 -5 -4 -8 5 -11 4 -7 -3 4 -5 16
-8 27 -5 11 3 20 1 20 -3 0 -8 31 -12 128 -17 17 -1 32 -5 32 -9 0 -5 5 -8 11
-8 5 0 7 5 4 10 -3 6 -2 10 4 10 5 0 12 -6 14 -12 4 -10 6 -10 6 0 1 6 6 12
12 12 5 0 7 -4 4 -10 -3 -5 -1 -10 5 -10 7 0 9 7 6 16 -4 10 1 22 11 31 10 8
13 12 6 9 -6 -4 -14 -2 -18 4 -3 5 -2 10 4 10 6 0 8 7 5 15 -4 8 -11 12 -18 9
-6 -3 0 4 14 16 14 12 20 19 13 16 -8 -4 -11 10 -9 51 1 32 -2 68 -6 81 -4 13
-3 22 2 22 6 0 10 5 10 11 0 5 -6 7 -12 3 -10 -5 -10 -4 -1 6 8 8 9 20 3 36
-6 16 -6 24 1 24 6 0 5 8 -2 22 -10 18 -9 20 4 15 11 -4 14 -2 10 8 -3 8 -8
13 -12 10 -11 -6 -8 39 3 46 4 4 3 17 -4 29 -7 12 -8 20 -2 16 11 -6 10 44 -2
62 -3 6 -2 14 4 17 8 5 8 11 0 20 -8 10 -7 14 2 17 11 4 11 8 0 20 -10 12 -10
17 -1 20 9 3 9 9 0 25 -7 15 -8 24 -1 28 6 4 8 10 5 15 -3 4 2 10 10 13 9 4
12 1 8 -9 -3 -9 2 -14 17 -14 11 0 18 -5 15 -10 -3 -5 1 -10 9 -10 9 0 16 -5
16 -11 0 -15 26 -39 34 -32 3 4 6 -1 6 -11 0 -9 5 -14 10 -11 6 3 10 0 10 -8
0 -8 7 -18 16 -21 9 -3 12 -11 8 -18 -5 -9 -2 -8 9 1 15 12 17 12 10 -4 -5
-15 -3 -17 11 -12 12 5 16 2 14 -11 -2 -10 2 -16 11 -14 9 2 11 -3 7 -13 -3
-9 -2 -13 4 -10 6 3 13 -1 16 -9 3 -9 13 -16 21 -16 8 0 12 -4 9 -9 -3 -5 3
-11 14 -14 11 -3 24 -17 30 -31 5 -14 14 -26 20 -26 15 0 40 -25 40 -40 0 -6
4 -9 9 -5 5 3 12 -4 16 -15 3 -11 11 -20 16 -20 6 0 7 5 3 12 -4 7 -3 8 4 4 6
-4 8 -14 5 -23 -4 -10 -2 -14 4 -10 10 6 43 -26 43 -42 0 -5 8 -15 18 -22 16
-13 16 -13 2 6 -14 19 -14 19 3 6 9 -7 17 -23 17 -35 0 -17 2 -18 10 -6 9 14
15 7 11 -14 -1 -5 6 -6 15 -2 12 5 15 2 10 -9 -3 -9 1 -18 9 -21 8 -4 13 -10
10 -15 -3 -4 4 -6 16 -4 15 3 19 0 15 -10 -5 -13 5 -20 27 -16 6 1 11 -14 8
-31 0 -4 5 -5 13 -2 7 3 16 -2 19 -10 4 -9 16 -16 27 -16 11 0 23 -6 26 -14 3
-9 12 -12 21 -9 11 4 14 2 9 -5 -5 -8 1 -12 18 -12 14 0 26 -3 26 -8 0 -7 51
-13 120 -12 27 0 31 -2 20 -10 -9 -6 -10 -10 -3 -10 6 0 15 5 18 10 3 6 11 10
16 10 6 0 8 -4 5 -8 -2 -4 5 -9 17 -9 17 -2 19 0 7 7 -11 7 -1 9 32 8 30 -1
45 -5 42 -12 -3 -6 0 -4 8 4 15 17 27 19 47 6 9 -6 12 -5 8 1 -4 6 0 14 9 17
10 4 13 2 8 -7 -4 -6 3 -2 15 11 22 22 37 30 27 14 -13 -21 29 -6 54 19 21 21
30 25 39 16 9 -9 11 -8 6 6 -7 16 3 22 28 18 5 -1 6 3 2 9 -3 5 1 13 9 16 9 3
13 11 10 16 -4 6 4 4 17 -3 22 -11 23 -11 10 4 -13 17 -8 21 19 19 3 0 6 15 6
34 0 26 -4 33 -15 29 -12 -5 -12 -3 0 12 8 9 9 14 2 10 -7 -4 -16 0 -22 10 -8
14 -10 15 -11 3 0 -13 -1 -13 -10 0 -13 20 -12 33 2 24 7 -4 8 -3 4 5 -4 6
-12 9 -17 6 -5 -4 -17 -1 -26 5 -17 11 -17 11 0 6 11 -3 15 -2 12 4 -3 6 -16
10 -28 10 -14 0 -18 3 -10 8 9 6 7 13 -10 27 -12 10 -23 18 -25 17 -1 -2 -10
2 -20 8 -15 11 -15 11 2 6 16 -6 17 -4 6 9 -7 9 -15 13 -18 10 -8 -8 -32 16
-26 26 3 5 -3 6 -12 2 -12 -4 -15 -3 -10 5 4 7 2 12 -4 12 -6 0 -8 5 -5 10 3
6 -1 10 -9 10 -8 0 -18 10 -21 21 -5 15 -10 18 -15 9 -5 -8 -9 -7 -15 7 -5 10
-7 21 -7 26 2 7 -14 11 -32 8 -5 -1 -3 6 5 15 11 14 11 16 0 10 -9 -6 -21 0
-36 18 -12 14 -25 22 -29 18 -4 -4 -7 -2 -6 3 4 18 0 38 -6 32 -7 -7 -64 46
-64 61 0 6 -4 14 -10 17 -6 3 -7 -1 -4 -12 5 -17 5 -17 -6 0 -6 9 -8 22 -4 29
5 7 3 8 -5 3 -8 -4 -25 5 -44 26 -18 18 -25 29 -17 24 13 -8 13 -7 1 8 -7 9
-21 17 -31 17 -14 0 -17 6 -13 23 5 22 5 22 -11 2 -10 -11 -15 -14 -11 -7 8
15 -19 44 -31 34 -5 -4 -2 1 6 11 12 16 12 18 -1 16 -7 -1 -22 1 -32 6 -15 6
-16 10 -5 16 10 7 10 9 1 9 -7 0 -13 5 -13 11 0 5 5 7 10 4 6 -3 10 1 10 10 0
9 4 14 9 11 5 -3 11 1 15 9 3 8 11 15 17 15 8 0 8 -5 -2 -17 -7 -10 2 -3 19
15 18 18 36 30 42 27 5 -3 10 1 10 10 0 9 5 13 10 10 6 -3 13 1 16 10 4 9 13
14 20 11 8 -3 11 0 7 10 -4 11 0 15 13 12 10 -2 19 3 20 10 1 6 2 17 3 23 0 6
7 9 15 6 9 -4 13 0 11 11 -4 25 5 34 20 22 11 -9 13 -8 10 8 -2 12 3 26 11 32
7 7 11 17 7 24 -3 6 3 3 14 -7 11 -9 22 -15 25 -12 2 3 5 -2 5 -10 0 -11 -4
-12 -14 -3 -11 8 -12 7 -7 -6 3 -9 9 -16 13 -16 4 0 8 -7 8 -15 0 -11 -4 -12
-14 -3 -11 8 -12 7 -7 -6 3 -9 11 -16 16 -16 7 0 7 -4 0 -13 -11 -13 -11 -42
1 -53 4 -4 7 -23 7 -41 0 -25 3 -32 13 -27 8 5 8 2 -2 -9 -9 -12 -10 -17 -2
-17 7 0 10 -4 6 -9 -3 -5 -1 -12 4 -16 6 -3 8 -12 5 -19 -3 -8 -1 -17 5 -21 8
-4 8 -12 0 -27 -10 -18 -9 -20 4 -15 12 4 14 2 10 -10 -4 -11 -2 -14 5 -9 7 4
12 3 12 -3 0 -5 -5 -13 -11 -16 -6 -5 -4 -12 8 -22 10 -8 13 -12 7 -9 -6 3
-11 -1 -11 -8 0 -8 6 -12 12 -9 7 2 15 -3 19 -12 3 -9 2 -13 -4 -10 -6 3 -7
-1 -4 -9 3 -9 10 -16 14 -16 4 0 10 -7 13 -14 4 -11 1 -13 -11 -9 -14 6 -15 5
-2 -9 8 -9 18 -14 21 -12 4 2 9 -3 12 -11 4 -10 1 -12 -11 -9 -15 5 -15 4 1
-6 9 -6 14 -16 11 -22 -4 -7 -2 -8 4 -4 7 4 12 1 12 -8 0 -9 5 -16 11 -16 5 0
7 -5 4 -10 -3 -5 -1 -10 4 -10 6 0 11 -7 11 -15 0 -9 7 -18 16 -22 13 -5 13
-7 2 -14 -10 -7 -8 -9 6 -9 12 0 16 -5 12 -16 -3 -8 -2 -12 4 -9 9 6 15 -9 11
-29 -1 -5 5 -4 13 3 12 10 14 8 12 -13 -2 -17 1 -23 11 -19 9 4 16 -3 20 -16
3 -11 10 -21 15 -21 5 0 6 -5 2 -12 -4 -6 -3 -8 3 -5 13 8 46 -27 36 -37 -4
-4 1 -4 11 0 15 6 17 4 11 -6 -6 -10 -4 -12 8 -7 18 7 19 -12 2 -26 -6 -5 -2
-6 8 -3 11 3 20 0 23 -9 4 -8 10 -13 14 -10 5 3 19 -8 33 -24 14 -17 28 -27
31 -24 3 4 6 -1 6 -11 0 -9 5 -14 10 -11 6 3 10 1 10 -5 0 -6 5 -8 10 -5 6 3
10 -2 10 -12 0 -15 2 -16 10 -3 8 13 10 12 10 -4 0 -12 5 -16 16 -12 8 3 12 2
9 -4 -3 -6 1 -10 10 -10 8 0 18 -7 21 -15 4 -8 10 -12 15 -9 5 3 9 -1 9 -8 0
-10 2 -10 9 1 6 9 11 10 15 2 4 -6 4 -11 -1 -11 -19 -1 24 -20 45 -20 13 0 21
-4 18 -8 -3 -5 17 -15 45 -22 28 -8 53 -18 55 -22 3 -5 10 -5 16 -2 6 4 17 -1
25 -11 9 -14 13 -15 13 -4 0 12 2 12 10 -1 5 -8 10 -11 10 -7 0 4 9 3 20 -3
15 -8 20 -8 20 2 0 9 3 9 12 0 8 -8 15 -9 25 -1 9 8 14 7 19 -5 3 -9 10 -16
16 -16 5 0 7 4 4 8 -3 5 1 9 9 9 8 0 12 -4 10 -8 -3 -4 13 -9 35 -11 23 -2 40
1 40 7 0 7 3 7 8 0 9 -13 65 -14 74 0 5 6 8 6 8 0 0 -12 148 -11 158 1 4 4 0
4 -8 -1 -8 -5 -12 -4 -7 0 14 16 37 14 38 -3 0 -14 2 -13 9 3 5 11 9 17 9 13
1 -4 14 -3 31 2 18 5 32 5 36 -1 4 -6 10 -6 18 0 7 6 17 7 21 3 5 -4 5 -1 1 6
-6 11 4 15 30 11 4 0 11 5 15 13 5 7 9 8 9 2 0 -6 7 -11 15 -11 8 0 12 4 9 9
-3 4 2 8 10 8 9 0 16 6 16 13 0 8 4 7 10 -3 8 -13 11 -13 19 -1 5 8 16 11 25
8 9 -4 15 -3 15 1 -3 19 2 25 11 12 8 -13 10 -13 10 2 0 12 6 16 20 13 11 -2
18 0 15 5 -7 12 28 22 51 14 14 -4 15 -3 5 4 -16 11 -3 21 22 16 12 -1 17 2
14 11 -3 7 6 17 21 24 25 11 26 10 8 -4 -11 -8 -15 -15 -9 -15 6 0 20 11 30
24 10 14 25 26 33 28 8 2 21 11 28 21 7 9 20 17 29 17 9 0 13 6 10 14 -4 10
-1 13 9 9 7 -3 14 0 14 7 0 7 9 9 23 6 12 -3 16 -3 10 0 -7 3 -13 13 -13 21 0
13 3 13 18 2 9 -7 14 -10 10 -5 -3 4 1 16 10 25 9 10 25 28 35 40 10 12 21 19
26 16 5 -2 12 2 15 11 4 10 2 13 -6 8 -7 -5 -8 -3 -4 5 5 7 15 10 24 6 9 -3
13 -3 10 1 -11 10 11 44 27 44 9 0 12 6 8 17 -4 10 -2 14 4 10 6 -4 9 4 6 21
-3 15 -5 35 -6 44 -1 13 -7 16 -20 12 -12 -4 -17 -2 -13 4 3 6 -2 18 -11 28
-10 10 -18 21 -18 25 0 4 -4 11 -9 16 -5 5 -6 3 -2 -4 4 -7 2 -13 -3 -13 -11
0 -15 15 -12 34 1 5 -4 4 -11 -1 -9 -8 -18 -8 -30 1 -10 7 -15 16 -11 19 3 4
1 7 -5 7 -21 0 -27 3 -40 19 -8 9 -10 10 -7 3 6 -12 3 -12 -16 -1 -13 7 -28
12 -32 11 -5 -1 -6 2 -3 7 4 5 2 12 -4 16 -5 3 -10 1 -10 -6 0 -8 -4 -8 -15 1
-8 7 -15 9 -15 5 0 -4 -8 -1 -17 6 -11 10 -14 10 -9 2 10 -18 0 -16 -19 4 -13
13 -19 13 -25 4 -5 -9 -10 -10 -14 -2 -4 6 -12 11 -17 11 -6 0 -7 -6 -3 -12 6
-10 4 -10 -8 0 -11 9 -18 10 -23 2 -4 -7 -12 -7 -25 0 -13 7 -20 6 -23 -3 -4
-9 -6 -9 -6 1 -1 6 -6 12 -12 12 -5 0 -7 -5 -3 -12 4 -6 3 -8 -3 -5 -18 11
-64 16 -58 6 4 -5 10 -7 15 -4 5 3 11 2 13 -2 3 -5 -10 -8 -29 -9 -18 0 -31 3
-27 9 3 5 -6 1 -20 -8 -15 -9 -32 -13 -38 -9 -8 5 -10 2 -6 -8 4 -12 1 -14
-14 -11 -11 3 -19 0 -19 -7 0 -9 -4 -9 -17 1 -9 8 -14 9 -10 2 7 -11 -28 -30
-45 -25 -5 1 -8 -3 -8 -9 0 -6 -6 -9 -14 -6 -8 3 -27 -4 -42 -16 -16 -12 -24
-15 -19 -8 6 11 4 13 -11 7 -10 -5 -25 -9 -31 -9 -7 0 -13 -4 -13 -8 0 -4 -8
-6 -17 -4 -10 2 -18 4 -18 5 0 1 -10 3 -22 4 -12 1 -20 -1 -18 -4 3 -4 -6 -7
-20 -7 -16 0 -22 4 -18 11 4 6 -1 5 -11 -3 -15 -13 -19 -13 -27 0 -8 12 -10
12 -19 -1 -8 -12 -10 -12 -10 -1 0 8 -7 11 -20 8 -11 -3 -18 -1 -14 4 3 5 0
10 -5 10 -6 1 -17 2 -23 3 -7 1 -19 -3 -27 -8 -11 -8 -13 -8 -7 2 5 8 0 12
-14 12 -12 0 -19 4 -16 8 2 4 -5 9 -16 9 -12 1 -25 8 -29 15 -7 10 -9 10 -9
-2 0 -12 -2 -12 -9 -2 -4 8 -12 14 -17 15 -5 1 -8 5 -7 9 2 4 -6 5 -17 3 -12
-2 -17 1 -14 10 3 8 -1 12 -13 12 -10 -1 -17 4 -15 11 1 6 -1 11 -5 11 -19 -3
-33 2 -33 12 0 5 5 7 12 3 7 -4 8 -3 4 4 -4 6 -14 8 -23 5 -13 -5 -15 -2 -10
11 4 10 3 15 -3 11 -10 -6 -40 17 -40 31 0 5 -12 19 -27 32 -16 13 -23 21 -16
18 6 -4 14 -2 18 4 3 6 -3 10 -16 10 -16 0 -20 5 -16 20 5 18 -4 25 -26 21 -5
-1 -6 3 -2 9 3 5 1 10 -6 10 -8 0 -8 4 1 15 11 13 8 19 -11 17 -3 -1 -5 13 -4
29 1 18 -4 33 -12 36 -10 4 -11 9 -2 19 7 8 9 17 5 21 -3 3 -6 1 -6 -6 0 -7
-5 -9 -12 -5 -7 5 -5 11 7 21 17 11 17 13 2 13 -18 0 -20 39 -2 52 6 5 5 8 -3
8 -9 0 -10 5 -3 17 7 13 5 23 -7 36 -13 14 -13 17 -1 12 10 -4 15 1 16 15 1
13 -2 18 -10 13 -7 -4 -6 0 2 10 7 9 11 23 8 31 -4 11 -1 13 11 9 14 -5 15 -3
5 8 -18 19 -16 29 5 22 15 -6 15 -5 -1 12 -18 18 -18 19 5 38 12 10 16 15 8
11 -13 -7 -13 -5 -1 9 7 9 11 23 8 31 -4 10 0 14 13 11 13 -3 17 1 13 11 -3 7
-10 11 -16 7 -6 -3 -7 -1 -3 6 4 6 12 9 17 6 5 -4 9 0 9 8 0 8 7 17 15 21 8 3
15 13 15 22 0 11 5 14 16 10 14 -5 15 -4 4 9 -10 12 -10 15 2 15 8 0 23 7 34
16 18 14 18 14 -6 3 -23 -11 -24 -11 -11 4 7 10 20 17 28 17 8 0 11 5 7 12 -5
8 -2 9 9 5 10 -4 16 -2 14 6 -1 7 4 11 12 9 8 -2 11 3 8 12 -4 10 -1 13 9 9 7
-3 14 0 14 6 0 6 7 11 16 11 9 0 12 5 8 13 -4 6 -3 9 1 4 5 -4 18 1 29 10 20
17 20 17 6 -1 -14 -18 -14 -18 7 -6 12 8 19 18 17 22 -3 4 3 8 13 8 11 0 25 6
32 13 11 10 12 9 6 -3 -6 -12 -5 -13 6 -2 7 6 23 12 36 12 13 0 23 5 23 11 0
8 5 8 15 -1 12 -10 15 -9 15 6 0 16 2 17 10 4 5 -8 10 -11 10 -6 0 5 6 3 14
-3 9 -8 16 -8 20 -2 4 6 14 7 23 4 12 -5 14 -3 8 8 -6 11 -5 12 6 2 17 -17 32
-17 23 0 -6 9 -4 9 7 1 8 -6 24 -10 37 -8 15 3 21 0 16 -7 -4 -8 0 -8 15 0 13
7 21 8 21 2 0 -5 9 -8 19 -6 28 5 62 -6 54 -18 -3 -6 -1 -7 5 -3 6 4 31 -3 54
-15 39 -20 42 -20 28 -3 -14 18 -14 18 6 1 11 -9 25 -14 29 -10 5 5 4 0 -3 -9
-11 -14 -10 -16 5 -13 10 1 24 -2 31 -8 6 -5 12 -6 12 -2 0 4 11 0 24 -9 16
-10 27 -12 31 -6 4 6 12 7 18 3 7 -5 37 -9 67 -11 100 -4 120 -3 120 10 0 6 6
6 15 -2 8 -7 15 -8 15 -3 0 10 3 11 55 17 18 2 29 9 27 16 -3 11 0 11 12 1 13
-11 17 -10 22 3 4 10 13 15 21 12 9 -4 11 -2 7 6 -5 8 -2 9 9 5 11 -4 17 -1
17 9 0 8 5 12 10 9 6 -3 13 0 16 9 3 8 14 13 25 11 10 -2 22 1 25 7 4 7 2 8
-4 4 -7 -4 -12 -4 -12 -1 0 9 20 27 53 48 15 10 25 23 21 29 -4 7 -3 8 4 4 6
-3 16 3 22 14 6 11 7 20 3 20 -4 0 -1 5 7 10 12 7 12 12 2 22 -6 6 -12 21 -12
31 0 16 -3 17 -14 8 -12 -10 -13 -9 -9 8 3 13 -3 25 -21 36 -14 10 -23 21 -20
26 3 5 2 9 -3 8 -4 -1 -15 -1 -23 0 -13 1 -13 2 0 11 12 8 11 10 -7 10 -15 0
-23 6 -23 17 0 9 -3 13 -6 10 -8 -7 -64 50 -64 65 0 5 -5 6 -10 3 -6 -3 -13 1
-16 9 -3 9 -12 16 -20 16 -8 0 -14 5 -14 10 0 6 -11 15 -25 20 -14 5 -25 15
-25 22 0 9 -3 8 -10 -2 -8 -13 -10 -12 -10 4 0 11 -3 17 -6 13 -4 -3 -15 4
-26 16 -11 12 -16 16 -12 8 5 -11 3 -13 -10 -8 -10 4 -20 7 -22 7 -3 0 -3 4 1
9 3 5 0 13 -6 17 -8 4 -9 3 -5 -4 4 -7 2 -12 -3 -12 -6 0 -11 4 -11 10 0 5 -3
9 -8 9 -19 -3 -33 2 -27 11 4 6 -1 7 -11 3 -11 -4 -15 -2 -11 4 4 6 -4 9 -19
7 -14 -1 -28 4 -30 11 -3 8 -13 11 -21 8 -12 -5 -14 -3 -8 7 6 10 4 12 -8 7
-12 -4 -17 -1 -18 11 0 10 -3 12 -6 4 -2 -6 -10 -9 -16 -5 -6 4 -21 8 -32 10
-11 1 -33 5 -50 8 -50 9 -437 11 -442 2 -3 -4 -11 -3 -19 4 -8 6 -14 7 -14 2
0 -13 -53 -12 -62 1 -5 7 -8 5 -8 -4 0 -10 -11 -16 -32 -17 -18 0 -34 -6 -36
-12 -3 -9 -8 -8 -20 1 -11 9 -14 10 -8 1 5 -9 -5 -15 -34 -19 -22 -4 -43 -11
-47 -17 -4 -6 -1 -7 7 -2 9 5 11 4 6 -4 -6 -9 -11 -9 -22 0 -11 9 -14 9 -14 0
0 -7 -4 -9 -10 -6 -5 3 -10 1 -10 -5 0 -7 -7 -9 -16 -6 -10 4 -13 2 -8 -6 5
-7 0 -9 -14 -6 -13 4 -20 2 -19 -6 1 -6 -4 -10 -10 -8 -7 1 -13 -3 -13 -10 0
-6 -3 -9 -6 -5 -4 3 -13 -1 -21 -9 -9 -8 -22 -13 -30 -10 -8 3 -11 1 -8 -4 3
-6 1 -10 -5 -10 -6 0 -8 -5 -5 -11 4 -6 0 -9 -11 -7 -11 2 -18 -2 -17 -9 2 -7
-4 -10 -12 -7 -9 4 -18 -2 -24 -17 -5 -13 -10 -18 -10 -11 -1 7 -6 10 -11 7
-6 -4 -7 -11 -4 -17 5 -7 1 -9 -9 -5 -12 4 -17 1 -17 -10 0 -9 -3 -13 -7 -10
-3 4 -13 -2 -20 -13 -8 -11 -19 -17 -25 -14 -7 5 -9 1 -5 -9 4 -11 1 -15 -12
-12 -12 2 -18 -2 -17 -13 1 -10 -6 -16 -16 -16 -10 1 -16 -2 -13 -6 3 -5 -1
-15 -9 -23 -8 -8 -12 -18 -8 -23 4 -5 0 -3 -9 4 -14 11 -17 10 -15 -5 0 -10
-5 -17 -12 -15 -8 1 -11 -2 -7 -8 3 -5 1 -10 -5 -10 -6 0 -9 -4 -5 -9 3 -6 -4
-15 -15 -21 -11 -6 -17 -16 -14 -22 5 -8 1 -9 -11 -4 -15 5 -16 4 -5 -9 7 -9
9 -15 4 -13 -5 2 -10 -1 -11 -5 -1 -5 -9 -15 -19 -22 -10 -7 -19 -20 -20 -29
-1 -10 -5 -25 -9 -33 -5 -14 -7 -14 -20 3 -14 18 -14 17 -4 -7 8 -19 8 -32 0
-45 -6 -11 -11 -14 -11 -6 0 7 -5 10 -10 7 -6 -4 -7 -12 -3 -18 4 -7 0 -6 -10
2 -18 14 -13 35 6 25 7 -3 4 1 -6 9 -11 9 -15 21 -10 32 4 13 3 16 -5 11 -9
-5 -9 0 -2 20 8 21 8 25 -3 21 -8 -3 -14 1 -14 9 0 7 4 11 8 8 4 -2 2 9 -4 25
-6 17 -15 27 -21 24 -5 -4 -7 1 -3 10 3 9 -1 23 -9 32 -14 14 -11 19 9 16 14
-2 7 8 -14 20 -17 9 -20 8 -14 -3 5 -7 4 -10 0 -5 -5 4 -10 17 -12 29 -2 11
-11 27 -21 35 -11 10 -12 12 -2 8 8 -4 6 1 -4 9 -11 9 -16 16 -10 16 5 0 -4 9
-21 20 -16 11 -26 20 -22 20 14 0 -72 79 -104 95 -16 9 -33 23 -36 30 -3 8 -9
12 -14 10 -4 -3 -14 3 -21 15 -7 11 -16 20 -21 20 -4 0 -5 -6 -1 -12 5 -9 3
-9 -9 1 -9 7 -14 17 -11 22 3 5 2 9 -3 8 -22 -4 -43 2 -38 11 3 6 -1 7 -9 4
-9 -4 -16 -1 -16 6 0 7 -7 10 -16 6 -8 -3 -22 1 -31 9 -8 8 -19 13 -24 10 -5
-4 -9 -2 -9 3 0 5 -16 8 -34 7 -19 -2 -47 4 -62 11 -23 12 -25 12 -20 -2 4
-10 2 -13 -6 -8 -24 15 -159 24 -151 10 4 -5 2 -6 -4 -3 -18 11 -63 16 -68 6
-4 -5 -13 -5 -24 1 -12 6 -22 5 -28 -1 -7 -7 -17 -8 -30 -1 -12 7 -25 7 -36 1
-12 -7 -17 -6 -17 2 0 9 -3 9 -14 0 -10 -8 -16 -9 -21 -1 -4 7 -12 7 -26 0
-13 -8 -19 -7 -19 0 0 7 -7 8 -17 3 -22 -10 -44 -10 -60 0 -8 5 -13 3 -13 -3
0 -7 -6 -8 -18 -1 -11 6 -24 6 -35 0 -12 -7 -17 -6 -17 1 0 6 -5 8 -12 4 -17
-11 -68 -12 -68 -3 0 5 -7 6 -15 3 -8 -4 -12 -11 -8 -18 5 -8 3 -8 -8 0 -8 6
-22 10 -31 9 -10 -2 -18 1 -18 6 0 6 -6 7 -12 2 -18 -11 -58 -12 -64 -1 -3 4
-14 3 -25 -2 -14 -8 -19 -7 -19 1 0 8 -4 9 -13 0 -10 -8 -17 -7 -25 1 -9 9
-12 9 -12 -1 0 -10 -3 -11 -13 -3 -8 7 -18 7 -27 2 -9 -5 -19 -5 -26 1 -8 7
-14 6 -19 -1 -5 -7 -11 -8 -19 -1 -9 7 -19 4 -36 -12z m2744 -88 c-4 -7 2 -6
17 1 17 10 24 10 27 2 3 -9 9 -9 24 -1 16 8 19 8 13 -1 -6 -9 -3 -9 13 -1 25
13 35 14 27 2 -3 -6 6 -6 25 -1 16 5 30 5 30 1 0 -5 12 -7 27 -5 15 1 42 -4
60 -11 19 -8 31 -10 28 -5 -7 12 8 13 19 3 8 -8 14 -10 47 -12 13 -1 18 -5 13
-13 -6 -10 -4 -10 7 0 16 14 33 16 24 2 -5 -8 31 -15 58 -11 4 0 7 -5 7 -13 0
-9 7 -12 20 -9 12 3 20 0 20 -6 0 -7 5 -9 10 -6 6 3 10 -1 10 -9 0 -10 6 -13
15 -10 8 4 21 2 28 -4 6 -6 17 -12 22 -14 6 -1 9 -6 8 -9 -1 -4 7 -4 19 -1 13
3 19 1 15 -5 -8 -13 20 -26 35 -16 6 3 8 2 5 -3 -3 -6 8 -16 24 -23 16 -7 26
-17 23 -23 -5 -7 -2 -8 6 -3 8 5 19 0 29 -14 9 -12 24 -23 31 -24 26 -4 39
-17 33 -32 -4 -11 -1 -13 11 -9 11 4 16 1 16 -10 0 -9 7 -16 16 -16 8 0 12 -4
9 -10 -3 -5 2 -10 11 -10 10 0 14 -3 11 -7 -4 -3 1 -11 10 -18 23 -17 25 -43
3 -50 -9 -3 -22 -15 -29 -28 -10 -18 -11 -19 -6 -2 4 17 2 16 -15 -5 -17 -20
-19 -21 -14 -5 7 20 7 20 -9 0 -8 -11 -13 -24 -9 -30 3 -5 -3 -3 -13 5 -10 8
-16 10 -12 3 4 -7 -5 -15 -25 -22 -39 -14 -41 -14 -33 2 4 6 0 4 -8 -5 -11
-14 -16 -15 -27 -5 -8 8 -11 8 -7 1 9 -16 -7 -20 -68 -18 -100 2 -106 3 -99
17 5 9 4 9 -6 0 -7 -7 -19 -8 -29 -4 -29 15 -86 33 -103 34 -9 1 -15 4 -13 7
2 3 -5 12 -17 19 -11 7 -17 8 -13 2 4 -8 -2 -7 -19 1 -14 6 -26 15 -26 19 0 5
-7 5 -17 2 -9 -4 -14 -2 -10 3 3 5 -3 10 -14 10 -10 0 -19 -5 -19 -10 0 -5 -7
-1 -16 10 -11 14 -17 16 -21 6 -4 -10 -9 -9 -20 5 -8 10 -12 13 -9 7 3 -7 -1
-15 -10 -18 -8 -3 -13 -2 -9 3 8 14 -17 20 -37 9 -12 -6 -18 -5 -18 2 0 6 -5
8 -10 5 -6 -4 -18 -1 -26 6 -12 9 -13 9 -9 -2 4 -10 -3 -14 -27 -13 -18 1 -39
-3 -45 -8 -7 -6 -24 -8 -38 -6 -14 3 -25 1 -25 -4 0 -5 -5 -6 -11 -2 -6 3 -15
0 -20 -7 -7 -12 -9 -11 -9 1 0 9 -3 11 -8 5 -4 -5 -17 -16 -29 -23 -19 -10
-23 -10 -23 0 0 9 -3 8 -10 -2 -5 -8 -10 -11 -10 -6 0 6 -7 1 -16 -10 -8 -10
-12 -12 -8 -4 7 13 5 13 -9 2 -9 -8 -21 -11 -26 -8 -6 4 -8 -1 -6 -12 2 -13
-3 -18 -23 -17 -17 0 -26 -5 -24 -13 2 -9 -4 -11 -18 -7 -14 5 -20 2 -20 -10
0 -9 -4 -14 -9 -11 -13 8 -62 -19 -53 -29 4 -4 -3 -6 -15 -3 -16 4 -20 2 -16
-8 5 -13 -9 -18 -45 -17 -9 1 -10 -3 -2 -11 13 -17 0 -29 -17 -15 -10 9 -13 8
-13 -4 0 -18 -24 -29 -47 -20 -15 5 -14 3 2 -11 19 -15 19 -16 1 -9 -13 4 -17
3 -12 -5 5 -8 1 -10 -10 -5 -13 5 -16 3 -11 -10 4 -12 1 -15 -14 -12 -15 3
-19 0 -15 -10 3 -10 -3 -17 -19 -21 -14 -3 -22 -10 -19 -15 3 -5 0 -9 -6 -9
-13 0 -40 -25 -40 -37 0 -4 -9 -14 -21 -21 -17 -11 -20 -11 -14 0 4 7 -2 2
-13 -12 -11 -13 -18 -29 -15 -34 4 -5 -1 -7 -10 -3 -8 3 -18 0 -21 -8 -3 -10
0 -12 12 -9 12 4 11 2 -3 -7 -35 -22 -77 -68 -71 -78 4 -5 -3 -12 -14 -16 -11
-3 -19 -9 -19 -13 3 -20 -2 -32 -11 -27 -6 3 -10 -1 -10 -9 0 -9 -6 -16 -12
-16 -9 0 -8 -4 2 -10 13 -8 12 -10 -3 -10 -10 0 -15 -4 -12 -10 3 -5 1 -10 -4
-10 -6 0 -11 -5 -11 -11 0 -5 5 -7 12 -3 7 4 8 3 4 -5 -4 -6 -12 -8 -18 -5 -7
5 -9 0 -5 -15 5 -19 3 -20 -10 -9 -14 12 -15 11 -5 -9 11 -20 10 -21 -10 -18
-16 4 -19 2 -10 -7 20 -20 13 -29 -10 -17 -21 11 -22 11 -9 -5 12 -14 12 -16
-2 -10 -15 5 -16 47 -3 112 3 12 1 20 -4 17 -12 -7 -5 76 8 101 8 16 8 24 -1
34 -10 10 -8 12 7 6 15 -5 17 -4 7 8 -13 15 -11 37 3 48 6 4 5 12 -2 21 -13
16 -6 28 12 21 7 -3 13 2 13 10 0 8 -5 13 -10 9 -5 -3 -4 4 2 16 7 12 10 25 7
30 -3 4 3 17 14 29 14 15 16 23 8 28 -8 5 -6 11 6 20 10 7 15 17 11 23 -3 6 1
11 10 11 9 0 14 4 11 9 -8 12 14 71 26 71 6 0 4 -8 -3 -17 -13 -16 -12 -17 3
-4 14 10 15 17 7 33 -8 14 -8 18 0 14 6 -4 13 4 17 19 3 14 14 31 24 38 9 6
18 17 20 22 1 6 6 9 12 7 5 -1 7 2 4 7 -4 5 2 14 11 20 10 5 18 13 18 18 0 4
3 7 7 6 4 -2 5 4 2 11 -6 14 28 40 39 30 3 -3 8 0 13 7 4 8 3 10 -4 5 -17 -10
-15 1 5 24 10 11 23 20 31 20 7 0 10 5 7 10 -6 9 7 14 27 11 4 0 5 6 2 14 -4
10 0 13 16 10 19 -4 20 -2 9 13 -7 9 -10 14 -5 10 4 -4 19 5 33 20 13 15 22
22 19 15 -4 -6 -2 -14 4 -18 6 -3 10 4 10 16 0 12 3 19 7 16 3 -4 12 1 20 11
8 9 11 11 7 3 -5 -10 -3 -12 5 -7 7 5 10 15 6 23 -4 13 -3 14 10 3 12 -10 15
-10 15 0 0 7 7 10 16 6 8 -3 12 -2 9 4 -3 6 -1 10 5 10 6 0 8 4 5 10 -4 6 1 7
11 3 13 -5 15 -3 9 8 -8 12 -6 12 8 0 15 -12 17 -11 17 2 0 11 7 15 20 12 11
-2 18 0 15 4 -3 5 2 12 11 15 10 4 13 2 9 -7 -4 -6 3 -1 14 12 13 14 21 18 21
10 0 -12 2 -12 9 0 5 7 13 11 19 7 6 -3 14 -1 18 5 5 8 3 9 -6 4 -8 -5 -11 -4
-7 2 4 6 19 8 34 6 19 -3 24 -2 15 5 -11 7 -9 10 7 15 12 3 19 2 16 -3 -3 -4
2 -11 11 -14 8 -3 13 -2 10 3 -3 5 8 14 24 20 17 5 28 6 25 1 -3 -5 10 -3 29
5 19 8 49 13 66 11 17 -2 33 0 36 5 3 5 10 9 15 9 6 0 7 -5 3 -11z m-2564 -13
c0 5 5 2 10 -6 6 -10 10 -11 10 -2 0 6 9 12 20 12 11 0 20 -6 20 -12 0 -9 4
-8 10 2 9 13 11 13 20 0 5 -8 10 -10 10 -5 0 6 9 11 20 12 11 1 18 -2 15 -7
-6 -10 21 -7 31 3 12 12 26 8 18 -5 -5 -9 -2 -9 9 1 14 11 17 11 17 0 0 -11 2
-11 10 1 9 13 10 13 10 0 0 -13 1 -13 10 0 9 13 10 13 10 0 0 -12 2 -12 9 -1
5 8 11 9 15 3 6 -11 37 -9 56 3 6 3 10 0 10 -7 0 -10 2 -10 9 1 6 9 14 10 22
5 19 -12 51 -12 67 -1 8 6 12 5 12 -4 0 -12 2 -12 9 0 6 9 10 10 16 2 5 -9 10
-9 21 0 11 9 14 8 14 -2 0 -10 3 -10 12 -1 13 13 32 17 25 5 -3 -5 15 -8 39
-8 24 0 44 4 44 8 0 5 6 5 13 0 19 -12 40 -13 54 -1 10 8 13 7 14 -3 0 -10 2
-11 6 -1 2 6 9 12 14 12 6 0 7 -6 3 -12 -5 -9 -2 -9 9 1 14 11 17 11 17 0 0
-8 6 -6 16 7 8 10 13 14 10 7 -4 -6 -2 -14 4 -18 5 -3 10 -1 10 5 0 6 5 8 13
3 6 -4 23 -6 36 -4 17 2 21 -1 15 -11 -6 -10 -4 -11 7 -3 21 16 85 11 104 -8
21 -22 32 -22 14 0 -13 15 -12 15 11 3 14 -8 33 -14 43 -15 10 -1 23 -8 30
-15 10 -10 9 -11 -2 -5 -10 6 -12 4 -6 -4 5 -9 10 -10 18 -2 12 12 71 -25 62
-40 -4 -5 0 -6 7 -4 8 3 22 -2 33 -11 11 -8 14 -12 6 -8 -9 4 -12 3 -7 -4 4
-6 13 -9 20 -6 7 3 16 -2 19 -10 4 -9 13 -16 21 -16 8 0 18 -5 22 -12 5 -7 2
-9 -7 -3 -8 4 -2 -4 13 -17 15 -14 24 -28 20 -32 -4 -4 -1 -6 6 -4 8 2 19 -6
25 -17 7 -11 15 -22 18 -25 3 -3 8 -13 12 -23 4 -10 11 -16 16 -12 5 3 12 1
15 -4 4 -5 1 -13 -5 -17 -8 -5 -9 -3 -4 6 6 9 4 11 -4 5 -9 -5 -7 -13 8 -29
12 -12 18 -26 14 -30 -5 -4 -3 -7 2 -6 23 5 28 -1 10 -13 -14 -11 -15 -16 -5
-22 9 -5 11 -4 6 3 -4 7 -2 12 3 12 12 0 13 -3 15 -40 1 -14 6 -32 11 -40 15
-24 16 -51 4 -67 -7 -7 -9 -16 -5 -20 3 -3 6 -1 6 5 0 7 4 12 10 12 6 0 6 -9
0 -25 -6 -16 -6 -27 2 -31 7 -5 8 -3 3 6 -5 9 -4 11 4 6 9 -6 8 -14 -4 -32
-14 -22 -14 -24 2 -25 11 0 13 -3 5 -6 -6 -2 -9 -10 -5 -16 4 -7 -1 -6 -11 2
-16 13 -16 12 -5 -13 11 -23 10 -29 -2 -37 -11 -6 -11 -9 -1 -9 15 0 6 -42 -9
-48 -5 -2 -6 -8 -3 -13 3 -6 0 -17 -8 -26 -9 -12 -9 -15 -1 -9 9 5 11 2 7 -8
-3 -9 -10 -14 -14 -11 -5 3 -12 0 -16 -6 -4 -7 -3 -9 3 -6 6 4 14 0 17 -8 3
-9 -1 -18 -9 -21 -8 -3 -11 -12 -7 -22 5 -15 4 -16 -13 -2 -13 10 -16 11 -11
2 5 -8 1 -21 -9 -32 -9 -10 -14 -24 -10 -29 3 -6 1 -11 -4 -11 -6 0 -11 -5
-11 -11 0 -17 -47 -69 -55 -61 -5 4 -5 -1 -2 -11 4 -11 3 -16 -4 -12 -11 8
-39 -12 -39 -28 0 -6 7 -2 16 9 15 18 15 18 4 -3 -6 -14 -16 -20 -25 -17 -9 4
-15 0 -15 -10 0 -9 -6 -15 -12 -14 -7 2 -12 -3 -10 -10 1 -8 -2 -11 -8 -7 -5
3 -10 1 -10 -5 0 -6 -4 -8 -10 -5 -5 3 -10 2 -10 -4 0 -6 -7 -8 -15 -5 -11 5
-14 2 -9 -12 6 -15 4 -17 -6 -7 -11 10 -18 7 -36 -12 -16 -18 -32 -24 -63 -23
-29 0 -41 5 -41 15 0 8 -4 11 -10 8 -5 -3 -10 1 -10 9 0 15 -12 21 -34 17 -5
-1 -3 5 4 14 7 9 9 15 4 14 -19 -3 -34 1 -34 12 0 5 5 7 12 3 7 -4 8 -3 4 4
-4 6 -14 8 -23 5 -12 -5 -14 -3 -8 7 6 10 4 12 -10 6 -16 -6 -16 -4 -4 11 7
10 9 15 5 11 -11 -10 -38 11 -30 23 3 5 -2 6 -10 3 -11 -4 -16 0 -16 11 0 9
-4 13 -10 10 -5 -3 -10 1 -10 9 0 15 -12 21 -34 17 -5 -1 -3 6 5 15 8 10 9 15
3 11 -6 -3 -25 4 -43 17 -22 17 -28 26 -19 30 7 3 3 4 -9 2 -17 -3 -21 0 -18
15 2 11 0 17 -6 14 -5 -4 -12 1 -15 9 -3 9 -10 13 -15 10 -5 -3 -6 3 -2 12 4
12 8 14 11 6 3 -10 7 -10 20 0 9 8 13 8 9 2 -4 -7 0 -14 8 -18 8 -3 17 0 21 6
4 7 3 8 -4 4 -7 -4 -12 -3 -12 3 0 9 42 9 70 -2 26 -9 51 -4 46 9 -5 13 23 12
44 -1 6 -3 10 -3 10 2 0 4 14 16 31 25 18 11 27 13 24 5 -4 -6 2 -1 13 12 11
14 24 21 31 17 6 -4 11 -4 10 1 -3 18 1 36 7 30 9 -8 45 63 38 74 -3 5 3 9 13
10 16 0 16 1 -1 8 -18 7 -18 8 5 25 l24 18 -25 -8 c-22 -6 -23 -5 -11 10 9 11
10 16 2 16 -9 0 -9 5 -1 20 8 15 8 20 -2 21 -10 0 -10 2 0 6 10 4 9 8 -5 19
-14 11 -15 13 -3 14 13 0 13 2 1 9 -8 5 -16 18 -17 28 -2 9 -8 19 -15 22 -8 2
-7 6 2 12 10 6 8 9 -8 9 -16 0 -23 6 -23 19 0 14 -6 19 -20 16 -11 -2 -19 1
-17 8 1 6 -5 12 -13 12 -8 0 -14 5 -13 11 1 6 -18 10 -45 10 -26 -1 -55 2 -64
7 -10 4 -18 4 -18 0 0 -4 -35 -6 -77 -3 -43 3 -122 3 -175 0 -54 -3 -111 -2
-128 1 -16 4 -30 4 -30 0 0 -11 -93 -2 -101 10 -4 7 -14 9 -23 6 -11 -4 -16
-1 -16 11 0 14 -2 14 -9 3 -7 -12 -12 -11 -30 1 -11 8 -19 17 -16 20 3 3 -5 4
-19 3 -14 -2 -27 3 -30 11 -3 8 -10 14 -17 14 -6 0 -23 13 -39 30 -15 16 -30
26 -34 23 -3 -3 -6 1 -6 10 0 10 -5 17 -11 17 -5 0 -7 5 -4 10 3 6 -1 10 -10
10 -11 0 -15 5 -12 14 4 11 1 13 -10 9 -13 -5 -15 -2 -10 16 4 18 2 21 -11 16
-9 -3 -13 -3 -9 1 4 4 -1 16 -10 27 -10 12 -12 17 -4 12 9 -5 12 -3 9 6 -3 8
-10 14 -15 14 -18 0 -25 12 -12 21 8 5 10 3 4 -6 -5 -8 -4 -11 3 -6 6 4 9 13
6 21 -4 8 -10 12 -15 9 -5 -3 -9 -1 -9 5 0 5 5 13 10 16 6 4 8 11 5 16 -4 5
-3 14 1 20 4 8 9 7 15 -2 7 -12 9 -12 9 0 0 11 3 11 15 1 13 -11 14 -10 8 6
-6 17 -5 17 10 5 9 -7 17 -10 17 -5z m-85 -26 c3 -5 1 -10 -4 -10 -6 0 -11 5
-11 10 0 6 2 10 4 10 3 0 8 -4 11 -10z m2069 -775 c-4 -8 -2 -15 4 -15 6 0 12
6 15 13 2 6 4 0 3 -14 -1 -17 -6 -25 -13 -22 -7 3 -13 -2 -13 -12 0 -9 4 -14
9 -11 5 4 7 -3 4 -14 -3 -11 -10 -20 -15 -20 -5 0 -6 5 -2 12 4 7 3 8 -5 4 -9
-6 -9 -11 1 -24 11 -14 10 -15 -6 -9 -16 7 -17 5 -6 -9 12 -13 11 -17 -1 -25
-12 -7 -12 -9 0 -9 11 0 10 -4 -4 -13 -14 -11 -15 -16 -5 -22 10 -6 9 -9 -1
-16 -11 -7 -11 -9 1 -9 13 0 13 -1 0 -10 -9 -6 -11 -10 -3 -10 7 0 10 -6 7
-13 -8 -22 -11 -86 -3 -81 4 2 10 -3 13 -12 3 -8 2 -12 -4 -9 -6 3 -10 -1 -10
-10 0 -10 5 -13 12 -9 7 5 8 3 2 -7 -12 -20 -14 -40 -3 -33 5 3 9 -6 9 -20 0
-14 5 -26 12 -26 9 0 9 -3 0 -12 -14 -14 -16 -32 -3 -24 11 7 24 -41 15 -56
-5 -7 -2 -9 9 -5 9 3 19 1 23 -5 4 -7 3 -8 -4 -4 -19 11 -14 -5 6 -21 9 -8 12
-12 7 -9 -6 2 -11 -4 -11 -14 0 -15 3 -17 15 -7 11 9 13 9 8 0 -4 -6 -3 -14 3
-18 6 -4 8 -11 5 -16 -4 -5 -1 -9 5 -9 6 0 8 -5 4 -12 -5 -8 -2 -9 9 -5 10 4
16 2 14 -6 -1 -7 4 -11 12 -9 12 3 12 0 1 -12 -9 -12 -9 -16 -1 -16 7 0 9 -4
6 -10 -3 -6 1 -7 9 -4 10 4 20 -3 27 -20 7 -14 19 -26 27 -26 8 0 12 -6 9 -14
-4 -10 0 -14 14 -11 14 3 19 -2 19 -18 0 -18 2 -19 10 -7 8 13 10 13 10 -1 0
-9 12 -25 28 -35 19 -13 24 -13 17 -3 -5 8 1 3 14 -11 13 -14 20 -19 16 -11
-6 10 -4 12 4 7 7 -5 10 -15 6 -25 -5 -12 -3 -13 6 -4 13 13 42 6 33 -8 -3 -5
2 -6 10 -3 9 3 16 2 16 -4 0 -6 12 -9 26 -7 14 1 32 -4 40 -12 8 -8 21 -12 29
-9 8 3 15 1 15 -4 0 -5 7 -6 17 -3 11 4 14 3 9 -5 -4 -7 -3 -12 3 -12 5 0 12
6 15 13 5 9 7 9 12 -1 3 -6 11 -9 17 -5 18 11 57 11 64 0 4 -6 1 -7 -7 -2 -9
5 -11 4 -6 -4 6 -9 11 -9 21 -1 10 8 15 8 20 0 5 -8 11 -8 19 -1 7 6 16 8 19
4 4 -3 7 0 7 8 0 11 2 11 10 -1 8 -13 10 -13 10 -1 0 11 4 10 16 -5 8 -10 13
-14 10 -7 -10 18 13 26 31 11 9 -7 14 -8 10 -2 -4 7 2 14 16 17 12 2 31 8 41
12 15 7 18 5 12 -6 -4 -8 -1 -6 7 3 8 10 17 15 20 11 4 -3 7 0 7 8 0 11 2 11
10 -1 7 -11 10 -11 10 -2 0 7 4 11 9 8 5 -3 12 1 15 10 5 14 9 14 23 3 14 -12
16 -12 11 2 -4 11 -1 16 10 16 34 0 43 3 37 13 -3 6 -1 10 4 10 6 0 11 -6 11
-12 0 -9 3 -8 9 2 6 8 7 18 4 23 -3 5 3 4 14 -1 11 -6 25 -7 33 -2 8 5 18 6
23 3 5 -3 13 1 18 8 7 12 9 11 9 -1 0 -13 2 -13 9 -1 8 13 12 13 27 0 16 -12
17 -12 9 1 -7 13 -6 13 7 2 12 -9 18 -10 23 -2 4 7 11 7 18 2 7 -5 22 -9 35
-10 12 0 29 -8 38 -17 9 -9 19 -13 22 -10 4 3 0 10 -8 15 -11 7 -11 10 -2 10
7 0 15 -7 19 -16 5 -13 7 -13 14 -2 7 10 11 7 15 -10 5 -18 9 -20 15 -10 7 11
9 11 9 -1 0 -7 6 -11 13 -8 15 5 39 -18 29 -29 -4 -4 -2 -5 3 -1 20 11 37 -10
41 -48 3 -31 1 -35 -11 -25 -11 10 -14 8 -11 -7 2 -10 -2 -24 -10 -31 -11 -10
-14 -10 -14 0 -1 7 -7 0 -14 -17 -7 -16 -17 -30 -22 -30 -5 0 -8 -4 -6 -8 1
-5 -2 -6 -8 -2 -5 3 -10 1 -10 -5 0 -7 -7 -9 -16 -6 -8 3 -12 2 -9 -4 3 -6 1
-10 -5 -10 -6 0 -9 -4 -6 -9 3 -5 -1 -12 -10 -15 -8 -3 -12 -2 -9 4 3 6 -1 7
-9 4 -9 -3 -13 -10 -10 -15 3 -5 0 -9 -6 -9 -6 0 -8 -5 -4 -12 5 -8 0 -7 -11
2 -11 9 -16 10 -11 3 4 -8 2 -13 -4 -13 -6 0 -9 -4 -6 -8 3 -5 -1 -9 -9 -9 -8
0 -12 5 -9 11 3 6 -4 0 -16 -14 -12 -14 -18 -19 -14 -11 5 10 3 12 -5 7 -7 -5
-10 -15 -6 -24 5 -13 2 -12 -15 3 -16 15 -23 16 -33 6 -9 -10 -8 -11 6 -6 10
4 17 2 17 -4 0 -10 -14 -15 -32 -12 -5 0 -8 -3 -8 -8 0 -6 -9 -8 -21 -6 -15 3
-19 0 -15 -11 4 -12 2 -12 -14 -4 -16 8 -20 8 -18 -2 2 -8 -7 -13 -25 -12 -21
0 -26 -4 -22 -15 4 -11 1 -10 -14 3 -20 18 -20 18 -16 -4 3 -18 2 -20 -10 -10
-8 7 -15 8 -15 3 0 -5 -10 -9 -22 -8 -13 1 -27 -1 -33 -5 -5 -5 -23 -9 -40
-11 -16 -2 -36 -7 -42 -12 -8 -6 -13 -6 -13 0 0 5 -9 9 -19 9 -11 0 -17 -5
-14 -10 4 -5 -3 -7 -15 -4 -12 4 -22 3 -22 -1 0 -4 -20 -6 -45 -5 -25 1 -45
-1 -45 -5 0 -4 -7 -8 -15 -8 -8 0 -15 4 -15 9 0 5 -9 4 -20 -2 -11 -6 -20 -7
-20 -2 0 4 -9 8 -20 8 -11 0 -20 -5 -20 -11 0 -5 -5 -3 -10 5 -5 8 -10 11 -10
7 0 -4 -9 -3 -20 3 -16 9 -19 8 -14 -7 5 -17 5 -17 -9 0 -15 18 -32 24 -22 7
9 -15 -2 -12 -19 6 -9 8 -16 10 -16 4 0 -7 -6 -8 -19 0 -11 5 -28 7 -38 4 -13
-4 -14 -3 -5 4 11 7 9 10 -7 15 -14 3 -19 1 -14 -6 4 -7 0 -6 -10 1 -9 8 -20
11 -26 8 -5 -4 -16 1 -24 9 -12 11 -17 12 -20 2 -3 -7 -6 -5 -6 6 -1 9 -6 17
-12 17 -5 0 -7 -5 -3 -11 4 -8 0 -7 -15 1 -12 6 -19 15 -16 20 3 4 -4 6 -15 3
-12 -3 -20 0 -20 7 0 7 -8 10 -19 7 -14 -3 -18 -1 -14 10 3 7 2 13 -3 12 -23
-4 -55 2 -50 9 2 4 -5 14 -17 22 -19 11 -21 11 -12 -1 6 -8 2 -6 -7 4 -10 11
-18 16 -18 13 0 -3 -9 3 -20 14 -11 11 -28 20 -37 21 -15 0 -15 2 2 9 19 8 19
9 -2 9 -13 1 -23 6 -23 11 0 6 -7 10 -16 10 -8 0 -12 5 -9 10 3 6 -1 10 -9 10
-9 0 -16 5 -16 11 0 5 -6 7 -12 3 -9 -5 -8 -2 1 9 12 15 12 17 -1 12 -9 -4
-19 4 -28 19 -7 14 -17 23 -21 20 -5 -3 -14 6 -21 20 -6 14 -18 26 -25 26 -8
0 -11 5 -8 10 3 6 1 10 -5 10 -6 0 -8 5 -5 10 3 6 0 10 -7 10 -24 0 -39 22
-26 37 9 11 7 15 -10 20 -20 5 -26 15 -23 36 0 4 -4 7 -10 7 -5 0 -8 4 -5 9 3
5 -4 11 -15 14 -12 3 -18 10 -14 17 4 6 -1 18 -11 26 -18 15 -18 15 1 9 16 -5
15 -1 -7 20 -31 29 -38 45 -10 24 9 -7 6 0 -8 15 -14 16 -19 26 -13 22 9 -5
11 -2 7 8 -3 9 -11 13 -18 9 -6 -3 -8 -3 -4 2 4 4 4 13 -1 19 -4 6 -11 24 -15
39 -5 22 -4 27 6 21 11 -6 11 -5 0 8 -10 13 -10 18 -1 24 8 5 10 3 4 -7 -7
-12 -5 -12 6 -1 12 11 12 14 -1 22 -10 7 -11 10 -2 10 6 0 12 11 12 25 0 14 7
28 15 31 8 4 12 10 9 15 -3 5 0 9 7 9 8 0 7 5 -2 17 -10 11 -10 14 -1 9 7 -4
12 -2 12 4 0 6 6 8 13 4 6 -4 9 -3 4 1 -4 5 1 18 10 29 17 20 17 20 -1 6 -18
-14 -18 -14 -6 7 8 12 18 19 24 16 5 -4 7 1 3 11 -6 14 -3 17 9 12 13 -5 14
-4 6 7 -8 10 -3 22 21 50 18 20 41 47 52 60 11 14 24 22 29 19 5 -3 6 0 3 6
-9 14 3 43 14 36 5 -3 9 0 9 6 0 6 5 8 12 4 6 -4 8 -3 4 4 -3 6 -2 13 4 17 6
4 8 11 5 16 -3 5 2 6 11 2 13 -5 15 -3 9 7 -6 10 -4 12 8 7 9 -3 16 -3 16 1
-3 21 2 32 13 26 7 -5 9 -2 5 9 -4 12 -2 14 10 10 13 -5 15 -2 10 12 -6 15 -5
16 8 5 13 -10 15 -9 15 7 0 11 3 23 7 26 10 11 13 8 7 -8z m-2041 -88 c-5 -9
-3 -9 8 -1 8 6 24 11 37 12 21 1 22 -1 11 -16 -12 -16 -12 -16 5 0 14 12 25
14 42 7 15 -5 24 -5 24 1 0 6 5 10 11 10 5 0 8 -4 5 -8 -2 -4 8 -8 24 -7 15 0
26 3 23 7 -2 5 1 8 6 8 6 0 11 -5 11 -11 0 -8 5 -8 15 1 12 10 15 10 15 -1 0
-11 2 -11 10 1 9 13 10 13 10 0 0 -13 1 -13 10 0 6 9 13 11 18 5 10 -13 35
-18 27 -5 -3 5 -1 10 4 10 6 0 11 -5 11 -11 0 -8 5 -7 16 2 9 8 18 9 22 3 8
-11 27 -12 38 -1 12 12 26 8 18 -5 -6 -10 -4 -10 8 0 13 10 17 10 21 0 4 -10
8 -10 16 2 10 13 11 13 11 0 0 -13 1 -13 10 0 9 13 11 13 19 1 8 -12 12 -12
24 -2 11 8 16 9 19 1 2 -6 12 -13 23 -14 11 -2 19 -9 17 -16 -2 -8 3 -10 13
-6 9 3 13 2 10 -4 -3 -6 1 -10 10 -10 9 0 13 -4 10 -10 -3 -5 -1 -10 4 -10 6
0 11 -7 11 -16 0 -8 5 -12 10 -9 6 3 10 -4 10 -17 0 -18 2 -20 10 -8 7 11 10
11 10 2 0 -7 4 -11 9 -8 4 3 18 -15 31 -39 13 -24 27 -42 31 -39 5 3 9 0 9 -6
0 -6 5 -8 10 -5 5 3 10 2 10 -3 0 -17 70 -83 80 -77 6 4 10 3 9 -2 -4 -24 2
-35 17 -29 14 6 15 4 4 -9 -11 -13 -11 -16 1 -13 8 2 13 -4 13 -14 -1 -10 2
-16 6 -13 16 10 39 -7 33 -23 -4 -9 -3 -14 1 -10 10 8 47 -23 40 -34 -3 -5 0
-7 8 -6 7 2 12 -3 10 -11 -2 -8 3 -11 13 -8 9 4 15 1 15 -9 0 -8 5 -12 11 -9
6 4 13 -2 16 -14 3 -11 9 -18 14 -15 5 3 9 -3 9 -12 0 -10 3 -15 6 -11 8 8 33
-16 27 -25 -4 -8 21 -12 41 -9 5 1 5 -4 -1 -11 -8 -9 -7 -16 2 -25 7 -6 16 -9
19 -6 3 4 6 1 6 -6 0 -7 5 -9 13 -5 9 6 9 4 -1 -8 -12 -14 -10 -16 10 -11 16
3 19 2 10 -4 -9 -7 -6 -13 13 -21 14 -7 23 -17 20 -22 -4 -6 -1 -9 7 -8 8 2
12 -4 10 -16 -3 -17 -1 -18 11 -7 9 7 18 8 21 2 3 -5 0 -12 -6 -14 -8 -3 -6
-6 5 -6 9 -1 22 -12 29 -26 6 -13 15 -22 19 -19 4 2 15 -6 24 -19 8 -13 26
-30 40 -37 13 -7 22 -17 19 -22 -3 -4 0 -8 6 -8 6 0 9 -4 6 -9 -3 -5 5 -12 19
-15 14 -4 25 -11 25 -17 0 -6 -4 -7 -10 -4 -5 3 -10 1 -10 -6 0 -6 8 -9 20 -6
11 3 18 0 17 -7 -1 -6 4 -10 11 -8 6 1 12 -3 12 -9 0 -15 26 -39 35 -31 4 4 6
2 5 -3 -5 -21 0 -36 10 -30 6 3 10 1 10 -5 0 -6 4 -9 8 -6 5 3 15 -6 22 -19 7
-13 17 -22 21 -19 5 3 6 -2 3 -10 -5 -12 1 -16 22 -17 25 0 26 -1 9 -9 -11 -5
-14 -9 -8 -9 19 -1 53 -34 53 -51 0 -13 2 -13 11 0 8 12 9 10 4 -7 -4 -15 -2
-23 6 -23 7 0 9 -3 6 -6 -4 -4 -14 -1 -24 7 -9 8 -14 9 -10 3 4 -7 -1 -18 -10
-25 -14 -12 -15 -12 -9 -1 7 11 4 12 -13 3 -11 -7 -21 -16 -21 -21 0 -5 -7 -6
-17 -3 -12 5 -14 3 -8 -8 7 -11 5 -11 -10 1 -10 8 -16 10 -13 5 4 -6 -5 -15
-18 -22 -13 -6 -24 -7 -24 -2 0 4 -7 6 -15 3 -8 -4 -13 -9 -10 -14 2 -4 -13
-4 -35 0 -25 5 -40 4 -40 -3 0 -6 -10 -2 -22 9 -20 18 -21 18 -15 1 4 -11 3
-16 -3 -12 -10 6 -52 16 -80 19 -8 0 -20 6 -27 12 -6 6 -24 10 -38 9 -21 -3
-24 -1 -15 10 9 11 7 13 -14 9 -18 -3 -28 1 -32 11 -4 8 -12 15 -20 15 -7 0
-18 9 -24 20 -6 11 -17 20 -26 20 -8 0 -19 11 -26 25 -6 13 -14 22 -18 20 -4
-3 -14 3 -21 12 -12 14 -12 16 0 8 10 -5 12 -4 7 3 -4 7 -14 12 -22 12 -9 0
-12 5 -8 12 5 7 2 9 -8 5 -22 -8 -30 3 -16 20 6 8 7 13 2 12 -21 -4 -34 2 -34
15 0 8 -5 18 -12 22 -7 5 -8 3 -3 -7 8 -12 6 -12 -8 0 -9 7 -17 21 -17 30 0
14 -2 14 -10 1 -8 -12 -10 -11 -10 7 0 13 -3 22 -7 22 -23 -4 -31 3 -28 21 2
12 0 18 -6 14 -11 -7 -99 79 -99 98 0 10 -2 10 -9 0 -6 -10 -10 -9 -14 7 -3
12 -10 20 -15 19 -6 -2 -10 0 -11 5 -2 14 -36 44 -45 39 -5 -3 -7 4 -4 15 5
17 2 20 -16 15 -11 -3 -18 -1 -14 3 8 9 -29 45 -46 45 -6 0 -4 5 4 10 12 8 11
10 -7 10 -14 0 -23 6 -23 16 0 8 -4 12 -10 9 -5 -3 -10 1 -10 9 0 9 -7 16 -16
16 -14 0 -15 2 -3 17 11 13 11 15 1 9 -9 -5 -24 3 -43 25 -22 24 -29 28 -24
14 3 -11 -2 -5 -10 13 -10 20 -22 32 -35 32 -13 0 -20 7 -20 20 0 14 -7 20
-22 20 -21 0 -21 0 -2 15 17 13 17 14 1 9 -10 -4 -23 0 -30 7 -7 8 -11 12 -9
10 1 -2 -5 -15 -14 -29 -9 -13 -12 -22 -6 -18 5 3 12 -5 14 -19 3 -13 2 -23
-1 -20 -4 2 -7 -11 -7 -30 0 -19 2 -32 6 -30 3 2 5 -10 5 -26 0 -19 -4 -28
-12 -25 -7 3 -10 -1 -6 -9 3 -8 9 -12 14 -9 5 3 5 -6 -1 -20 -7 -19 -6 -26 3
-26 7 0 8 -3 2 -8 -5 -4 -10 -50 -10 -102 0 -53 -4 -98 -10 -102 -5 -4 -1 -8
10 -8 17 0 17 -2 5 -10 -11 -7 -11 -10 -2 -10 7 0 10 -5 7 -10 -4 -6 -12 -7
-18 -3 -7 4 -7 1 1 -9 15 -18 13 -59 -3 -70 -5 -4 -1 -8 10 -8 11 0 16 -4 10
-8 -15 -10 -16 -81 -2 -78 7 2 9 1 5 -1 -5 -3 -8 -14 -8 -24 0 -11 -4 -17 -10
-14 -6 3 -7 -1 -4 -9 3 -9 11 -13 16 -10 7 5 7 1 0 -11 -5 -11 -6 -30 -2 -46
7 -23 6 -27 -8 -21 -14 4 -15 3 -6 -9 23 -29 13 -46 -28 -46 -21 0 -38 4 -38
9 0 4 -11 8 -25 8 -14 0 -25 5 -25 11 0 6 -7 9 -15 5 -10 -3 -15 1 -15 12 0
15 -2 15 -10 2 -8 -13 -10 -13 -10 1 0 9 -9 19 -21 22 -12 3 -18 10 -15 15 3
6 -2 8 -14 5 -16 -4 -19 -2 -13 12 4 13 3 16 -5 11 -7 -4 -12 -2 -12 4 0 6 -4
8 -10 5 -5 -3 -10 1 -10 10 0 8 -7 18 -15 21 -8 4 -12 10 -9 15 3 5 -2 9 -11
9 -9 0 -13 5 -10 10 3 6 2 10 -3 10 -5 0 -12 9 -15 21 -3 12 -10 18 -15 15 -5
-3 -8 8 -7 25 1 21 -2 28 -11 25 -15 -6 -14 15 1 26 6 5 3 8 -7 8 -10 0 -15 7
-13 18 1 9 -2 23 -8 30 -6 8 -6 12 2 12 7 0 9 5 6 10 -4 6 -11 8 -16 4 -6 -3
-5 4 3 15 11 18 11 23 -1 30 -9 6 -10 11 -2 15 6 4 9 12 5 17 -3 5 -10 6 -16
3 -7 -4 -8 -2 -4 5 4 6 12 9 17 6 5 -4 9 -1 9 4 0 6 -6 11 -12 11 -9 0 -8 4 2
10 12 8 12 10 1 10 -10 0 -11 3 -2 14 10 11 8 17 -6 25 -10 6 -13 11 -7 11 15
0 26 40 11 40 -7 0 -3 7 7 15 20 15 20 15 0 16 -12 0 -14 3 -5 6 11 5 11 7 0
14 -12 7 -11 9 1 9 13 0 13 2 1 9 -12 8 -12 12 -2 25 11 13 11 16 0 17 -8 0
-5 4 6 9 17 7 17 9 3 9 -10 1 -18 6 -18 12 0 5 6 7 13 3 9 -6 9 -4 -1 8 -9 11
-10 18 -2 23 5 3 10 11 10 16 0 6 -4 8 -8 5 -7 -4 -7 47 0 112 1 7 8 10 15 8
8 -3 11 -1 8 4 -3 6 -13 10 -21 10 -9 0 -14 6 -11 13 2 6 11 11 18 9 10 -2 9
2 -3 14 -16 17 -17 19 -1 36 16 18 16 18 -1 12 -14 -5 -17 -3 -14 7 3 8 12 13
19 11 11 -3 11 -1 2 9 -9 9 -9 17 -1 33 10 19 10 20 -6 7 -14 -12 -16 -11 -13
8 2 13 10 27 18 32 11 7 11 9 -3 9 -21 0 -23 11 -6 28 9 9 9 12 0 12 -7 0 -12
5 -12 11 0 5 5 7 10 4 6 -3 10 -2 10 4 0 5 -4 12 -10 16 -5 3 -7 12 -4 20 4 8
10 13 14 10 5 -3 12 0 16 6 4 8 3 9 -4 5 -7 -4 -12 -1 -12 6 0 8 9 14 20 15
13 1 18 -2 13 -10z m757 -177 c0 -5 -2 -10 -4 -10 -3 0 -8 5 -11 10 -3 6 -1
10 4 10 6 0 11 -4 11 -10z m2797 -705 c0 -8 -4 -12 -9 -9 -5 3 -6 10 -3 15 9
13 12 11 12 -6z"/>
<path d="M2439 2793 c-13 -16 -12 -17 4 -4 16 13 21 21 13 21 -2 0 -10 -8 -17
-17z"/>
<path d="M2260 3019 c0 -5 5 -7 10 -4 6 3 10 8 10 11 0 2 -4 4 -10 4 -5 0 -10
-5 -10 -11z"/>
<path d="M1865 3000 c-3 -5 -1 -10 4 -10 6 0 11 5 11 10 0 6 -2 10 -4 10 -3 0
-8 -4 -11 -10z"/>
<path d="M2151 2507 c-13 -21 -12 -21 5 -5 10 10 16 20 13 22 -3 3 -11 -5 -18
-17z"/>
<path d="M1486 2487 c3 -10 9 -15 12 -12 3 3 0 11 -7 18 -10 9 -11 8 -5 -6z"/>
<path d="M743 2205 c0 -8 4 -12 9 -9 5 3 6 10 3 15 -9 13 -12 11 -12 -6z"/>
<path d="M746 1943 c-6 -14 -5 -15 5 -6 7 7 10 15 7 18 -3 3 -9 -2 -12 -12z"/>
<path d="M2085 3500 c3 -5 8 -10 11 -10 2 0 4 5 4 10 0 6 -5 10 -11 10 -5 0
-7 -4 -4 -10z"/>
<path d="M673 3355 c0 -8 4 -12 9 -9 5 3 6 10 3 15 -9 13 -12 11 -12 -6z"/>
<path d="M1270 2766 c0 -2 7 -7 16 -10 8 -3 12 -2 9 4 -6 10 -25 14 -25 6z"/>
<path d="M650 1660 c0 -5 5 -10 11 -10 5 0 7 5 4 10 -3 6 -8 10 -11 10 -2 0
-4 -4 -4 -10z"/>
<path d="M4359 1603 c-13 -16 -12 -17 4 -4 9 7 17 15 17 17 0 8 -8 3 -21 -13z"/>
</g>
</svg>
